<svg width="123" height="128" viewBox="0 0 123 128" fill="none" xmlns="http://www.w3.org/2000/svg">
<path fill-rule="evenodd" clip-rule="evenodd" d="M20.0353 107.296C12.7457 102.171 10.0099 96.1025 10.0158 86.595C10.0179 83.2394 12.4162 72.5713 17.3498 74.8318C18.5586 75.3857 19.9147 77.2421 20.2687 77.6793C28.5486 87.9041 42.5852 88.1081 52.81 79.8283C56.6319 76.7333 59.2456 72.6992 60.5877 68.3266C62.3086 77.3553 53.8206 95.2642 47.7906 101.067C41.7606 106.869 32.4626 114.406 20.0353 107.296Z" fill="url(#paint0_radial_40_1274)"/>
<path fill-rule="evenodd" clip-rule="evenodd" d="M20.0353 107.296C12.7457 102.171 10.0099 96.1025 10.0158 86.595C10.0179 83.2394 12.4162 72.5713 17.3498 74.8318C18.5586 75.3857 19.9147 77.2421 20.2687 77.6793C28.5486 87.9041 42.5852 88.1081 52.81 79.8283C56.6319 76.7333 59.2456 72.6992 60.5877 68.3266C62.3086 77.3553 53.8206 95.2642 47.7906 101.067C41.7606 106.869 32.4626 114.406 20.0353 107.296Z" fill="url(#paint1_radial_40_1274)"/>
<path fill-rule="evenodd" clip-rule="evenodd" d="M121.171 54.0657C124.056 62.4963 122.702 69.0142 117.109 76.7024C115.135 79.4159 106.924 86.6369 104.262 81.9082C103.609 80.7496 103.603 78.4507 103.574 77.8889C102.885 64.7501 91.6495 56.3345 78.5107 57.0231C73.5995 57.2805 69.1139 59.0079 65.4578 61.7565C69.3725 53.4406 86.7661 43.9412 95.0552 42.7911C103.344 41.6411 115.297 41.0086 121.171 54.0657Z" fill="url(#paint2_radial_40_1274)"/>
<path fill-rule="evenodd" clip-rule="evenodd" d="M121.171 54.0657C124.056 62.4963 122.702 69.0142 117.109 76.7024C115.135 79.4159 106.924 86.6369 104.262 81.9082C103.609 80.7496 103.603 78.4507 103.574 77.8889C102.885 64.7501 91.6495 56.3345 78.5107 57.0231C73.5995 57.2805 69.1139 59.0079 65.4578 61.7565C69.3725 53.4406 86.7661 43.9412 95.0552 42.7911C103.344 41.6411 115.297 41.0086 121.171 54.0657Z" fill="url(#paint3_radial_40_1274)"/>
<path fill-rule="evenodd" clip-rule="evenodd" d="M88.4221 117.9C81.2958 123.249 74.6785 123.975 65.6381 121.032C62.4474 119.993 53.0426 114.415 56.717 110.422C57.6173 109.443 59.8019 108.727 60.3272 108.525C72.6101 103.81 77.1417 90.5239 72.4267 78.241C70.6643 73.6497 67.6353 69.9174 63.8914 67.2897C73.01 68.443 87.4194 82.0498 91.0747 89.5777C94.7299 97.1057 99.0249 108.278 88.4221 117.9Z" fill="url(#paint4_radial_40_1274)"/>
<path fill-rule="evenodd" clip-rule="evenodd" d="M88.4221 117.9C81.2958 123.249 74.6785 123.975 65.6381 121.032C62.4474 119.993 53.0426 114.415 56.717 110.422C57.6173 109.443 59.8019 108.727 60.3272 108.525C72.6101 103.81 77.1417 90.5239 72.4267 78.241C70.6643 73.6497 67.6353 69.9174 63.8914 67.2897C73.01 68.443 87.4194 82.0498 91.0747 89.5777C94.7299 97.1057 99.0249 108.278 88.4221 117.9Z" fill="url(#paint5_radial_40_1274)"/>
<path fill-rule="evenodd" clip-rule="evenodd" d="M8.59023 37.7075C11.2114 29.1911 16.1379 24.7139 25.1818 21.7815C28.3739 20.7465 39.2609 19.7308 38.6356 25.1215C38.4824 26.4423 37.1359 28.3056 36.8295 28.7775C29.6638 39.8117 33.8073 53.2244 44.8415 60.3901C48.9661 63.0686 53.6103 64.3077 58.1838 64.2329C50.1287 68.6597 30.4734 66.1212 23.0914 62.1794C15.7095 58.2377 5.66802 51.7239 8.59023 37.7075Z" fill="url(#paint6_radial_40_1274)"/>
<path fill-rule="evenodd" clip-rule="evenodd" d="M8.59023 37.7075C11.2114 29.1911 16.1379 24.7139 25.1818 21.7815C28.3739 20.7465 39.2609 19.7308 38.6356 25.1215C38.4824 26.4423 37.1359 28.3056 36.8295 28.7775C29.6638 39.8117 33.8073 53.2244 44.8415 60.3901C48.9661 63.0686 53.6103 64.3077 58.1838 64.2329C50.1287 68.6597 30.4734 66.1212 23.0914 62.1794C15.7095 58.2377 5.66802 51.7239 8.59023 37.7075Z" fill="url(#paint7_radial_40_1274)"/>
<path fill-rule="evenodd" clip-rule="evenodd" d="M71.9424 4.18814C80.852 4.04926 86.6324 7.35112 92.216 15.0463C94.1867 17.7622 98.517 27.8026 93.1969 28.8737C91.8934 29.1361 89.7052 28.4313 89.1617 28.2857C76.4532 24.8805 64.9775 32.9659 61.5722 45.6744C60.2994 50.4248 60.5561 55.2247 62.0404 59.5512C55.3412 53.2583 51.6816 33.7805 53.1493 25.5418C54.617 17.3031 57.709 5.74024 71.9424 4.18814Z" fill="url(#paint8_radial_40_1274)"/>
<path fill-rule="evenodd" clip-rule="evenodd" d="M71.9424 4.18814C80.852 4.04926 86.6324 7.35112 92.216 15.0463C94.1867 17.7622 98.517 27.8026 93.1969 28.8737C91.8934 29.1361 89.7052 28.4313 89.1617 28.2857C76.4532 24.8805 64.9775 32.9659 61.5722 45.6744C60.2994 50.4248 60.5561 55.2247 62.0404 59.5512C55.3412 53.2583 51.6816 33.7805 53.1493 25.5418C54.617 17.3031 57.709 5.74024 71.9424 4.18814Z" fill="url(#paint9_radial_40_1274)"/>
<defs>
<radialGradient id="paint0_radial_40_1274" cx="0" cy="0" r="1" gradientUnits="userSpaceOnUse" gradientTransform="translate(52.3713 75.5931) rotate(151.823) scale(49.478 44.9803)">
<stop offset="0.0674776" stop-color="#9E7FDC"/>
<stop offset="0.865327" stop-color="#8659E1"/>
<stop offset="1" stop-color="#6C34DC"/>
</radialGradient>
<radialGradient id="paint1_radial_40_1274" cx="0" cy="0" r="1" gradientUnits="userSpaceOnUse" gradientTransform="translate(52.3713 75.5931) rotate(151.823) scale(49.478 44.9803)">
<stop offset="0.0674776" stop-color="#9E7FDC"/>
<stop offset="0.865327" stop-color="#8659E1"/>
<stop offset="1" stop-color="#6C34DC"/>
</radialGradient>
<radialGradient id="paint2_radial_40_1274" cx="0" cy="0" r="1" gradientUnits="userSpaceOnUse" gradientTransform="translate(76.3762 60.7072) rotate(7.823) scale(49.478 44.9803)">
<stop offset="0.0674776" stop-color="#9E7FDC"/>
<stop offset="0.865327" stop-color="#8659E1"/>
<stop offset="1" stop-color="#6C34DC"/>
</radialGradient>
<radialGradient id="paint3_radial_40_1274" cx="0" cy="0" r="1" gradientUnits="userSpaceOnUse" gradientTransform="translate(76.3762 60.7072) rotate(7.823) scale(49.478 44.9803)">
<stop offset="0.0674776" stop-color="#9E7FDC"/>
<stop offset="0.865327" stop-color="#8659E1"/>
<stop offset="1" stop-color="#6C34DC"/>
</radialGradient>
<radialGradient id="paint4_radial_40_1274" cx="0" cy="0" r="1" gradientUnits="userSpaceOnUse" gradientTransform="translate(68.2633 77.3494) rotate(79.823) scale(49.478 44.9804)">
<stop offset="0.0674776" stop-color="#9E7FDC"/>
<stop offset="0.865327" stop-color="#8659E1"/>
<stop offset="1" stop-color="#6C34DC"/>
</radialGradient>
<radialGradient id="paint5_radial_40_1274" cx="0" cy="0" r="1" gradientUnits="userSpaceOnUse" gradientTransform="translate(68.2633 77.3494) rotate(79.823) scale(49.478 44.9804)">
<stop offset="0.0674776" stop-color="#9E7FDC"/>
<stop offset="0.865327" stop-color="#8659E1"/>
<stop offset="1" stop-color="#6C34DC"/>
</radialGradient>
<radialGradient id="paint6_radial_40_1274" cx="0" cy="0" r="1" gradientUnits="userSpaceOnUse" gradientTransform="translate(48.7338 58.6642) rotate(-136.177) scale(49.478 44.9803)">
<stop offset="0.0674776" stop-color="#9E7FDC"/>
<stop offset="0.865327" stop-color="#8659E1"/>
<stop offset="1" stop-color="#6C34DC"/>
</radialGradient>
<radialGradient id="paint7_radial_40_1274" cx="0" cy="0" r="1" gradientUnits="userSpaceOnUse" gradientTransform="translate(48.7338 58.6642) rotate(-136.177) scale(49.478 44.9803)">
<stop offset="0.0674776" stop-color="#9E7FDC"/>
<stop offset="0.865327" stop-color="#8659E1"/>
<stop offset="1" stop-color="#6C34DC"/>
</radialGradient>
<radialGradient id="paint8_radial_40_1274" cx="0" cy="0" r="1" gradientUnits="userSpaceOnUse" gradientTransform="translate(64.4164 48.8429) rotate(-64.177) scale(49.478 44.9804)">
<stop offset="0.0674776" stop-color="#9E7FDC"/>
<stop offset="0.865327" stop-color="#8659E1"/>
<stop offset="1" stop-color="#6C34DC"/>
</radialGradient>
<radialGradient id="paint9_radial_40_1274" cx="0" cy="0" r="1" gradientUnits="userSpaceOnUse" gradientTransform="translate(64.4164 48.8429) rotate(-64.177) scale(49.478 44.9804)">
<stop offset="0.0674776" stop-color="#9E7FDC"/>
<stop offset="0.865327" stop-color="#8659E1"/>
<stop offset="1" stop-color="#6C34DC"/>
</radialGradient>
</defs>
</svg>
